<?xml version="1.0" standalone="no"?>
<!DOCTYPE svg PUBLIC "-//W3C//DTD SVG 20010904//EN"
 "http://www.w3.org/TR/2001/REC-SVG-20010904/DTD/svg10.dtd">
<svg version="1.0" xmlns="http://www.w3.org/2000/svg"
 width="1130.000000pt" height="360.000000pt" viewBox="0 0 1130.000000 360.000000"
 preserveAspectRatio="xMidYMid meet">

<g transform="translate(0.000000,360.000000) scale(0.100000,-0.100000)"
fill="#000000" stroke="none">
<path d="M0 1800 l0 -1800 5650 0 5650 0 0 1800 0 1800 -5650 0 -5650 0 0
-1800z m352 1260 l40 -40 293 0 293 0 108 -145 c91 -121 112 -145 129 -140 11
3 64 11 118 17 92 11 141 9 321 -15 13 -1 48 37 125 138 l106 140 302 3 c290
2 302 3 308 22 12 37 54 60 111 60 44 0 59 -5 85 -28 52 -46 56 -137 8 -188
-27 -28 -82 -46 -118 -37 -36 8 -79 40 -86 63 -6 19 -16 20 -284 20 l-279 0
-85 -113 -84 -113 86 -42 c47 -24 113 -63 146 -87 33 -25 62 -45 66 -45 3 0
25 23 48 50 l42 50 77 0 c76 0 77 1 105 35 56 70 172 62 212 -15 35 -68 5
-158 -62 -186 -53 -23 -100 -11 -145 37 -37 38 -40 40 -95 37 -51 -3 -59 -6
-85 -40 l-30 -36 52 -66 c28 -36 68 -96 88 -133 l37 -68 83 -3 82 -3 38 40
c62 66 136 68 191 5 26 -30 31 -43 31 -89 0 -46 -4 -57 -31 -84 -56 -57 -133
-55 -187 4 -31 33 -35 35 -101 35 l-68 0 20 -72 c36 -134 26 -395 -18 -510 -6
-16 0 -18 63 -18 68 0 71 1 110 40 34 34 46 40 81 40 84 0 131 -46 131 -129 0
-108 -111 -163 -202 -99 -15 10 -30 27 -33 38 -6 18 -16 20 -98 20 l-92 0 -30
-58 c-16 -31 -56 -92 -89 -135 l-58 -78 29 -37 c27 -34 35 -37 86 -40 55 -3
58 -1 95 37 47 49 94 61 147 35 93 -44 100 -171 12 -224 -58 -36 -137 -17
-171 40 -17 29 -19 30 -96 30 -83 0 -81 -1 -138 64 l-32 37 -43 -34 c-59 -47
-132 -91 -200 -121 l-58 -25 87 -116 86 -115 278 0 277 0 13 26 c36 66 140 76
196 20 29 -29 34 -41 34 -80 0 -92 -53 -143 -139 -133 -36 4 -52 13 -78 41
l-33 36 -290 0 c-264 0 -292 2 -307 18 -10 9 -61 75 -113 145 -90 122 -96 128
-125 123 -143 -25 -233 -28 -340 -12 -75 11 -112 13 -120 6 -5 -6 -55 -70
-110 -143 l-100 -132 -293 -3 -293 -2 -38 -40 c-34 -36 -43 -40 -85 -40 -26 0
-60 7 -76 15 -87 45 -76 193 17 232 55 23 101 11 146 -37 l38 -40 269 0 270 0
85 113 c47 63 85 117 85 120 0 4 -5 7 -11 7 -22 0 -154 72 -220 120 l-66 48
-50 -54 -49 -54 -71 0 c-69 0 -71 -1 -112 -41 -40 -41 -42 -41 -98 -37 -48 4
-61 10 -84 36 -51 57 -50 129 2 181 57 57 132 53 190 -10 32 -35 41 -39 84
-39 42 0 54 5 82 32 18 18 33 38 33 45 0 7 -22 40 -48 72 -26 33 -66 92 -87
130 l-40 71 -83 0 -82 0 -36 -40 c-23 -25 -48 -42 -69 -46 -80 -15 -155 46
-155 125 0 84 48 131 136 131 42 0 51 -4 85 -40 37 -39 40 -40 105 -40 64 0
66 1 60 23 -51 175 -51 393 0 560 5 15 -3 17 -65 17 -61 0 -72 -3 -81 -21 -18
-32 -71 -59 -119 -59 -37 0 -49 6 -82 39 -35 35 -39 44 -39 88 0 56 22 93 70
118 60 31 146 6 172 -50 11 -24 15 -25 97 -25 l86 0 30 58 c16 31 57 93 91
138 l61 80 -33 37 c-32 34 -38 37 -92 37 -53 0 -58 -2 -74 -30 -18 -31 -70
-60 -109 -60 -60 0 -129 71 -129 135 0 54 45 110 102 126 32 8 46 6 83 -10 27
-12 50 -30 57 -45 11 -25 15 -26 89 -26 51 0 82 -5 91 -13 7 -8 28 -31 47 -52
23 -27 37 -36 46 -29 81 59 149 102 210 131 52 24 73 39 67 48 -4 6 -41 58
-82 113 l-75 101 -276 1 -275 0 -23 -31 c-76 -102 -231 -51 -231 76 0 80 46
125 128 125 50 0 58 -3 94 -40z m6469 -615 c58 -20 124 -75 149 -125 l19 -38
-58 -36 c-67 -41 -77 -43 -85 -18 -12 38 -66 80 -118 92 -114 28 -218 -29
-249 -136 -17 -61 -17 -215 0 -268 18 -53 75 -113 119 -126 107 -29 201 4 242
85 14 28 26 52 28 54 1 3 32 -9 67 -27 61 -30 64 -33 55 -57 -32 -84 -76 -137
-144 -173 -47 -25 -60 -27 -171 -27 -141 0 -183 14 -263 89 -91 85 -135 240
-113 399 24 174 110 279 261 322 67 18 194 14 261 -10z m2091 14 c64 -14 104
-33 140 -67 l27 -25 -37 -53 c-20 -30 -41 -54 -45 -54 -5 0 -22 10 -39 21 -64
46 -161 60 -225 34 -45 -19 -53 -30 -53 -77 0 -50 30 -72 128 -92 181 -39 238
-70 278 -153 23 -47 26 -62 22 -123 -7 -94 -42 -151 -118 -194 -53 -30 -59
-31 -180 -31 -114 0 -130 2 -180 26 -59 28 -114 70 -130 99 -8 14 0 30 37 75
l46 56 41 -39 c64 -62 100 -76 189 -77 74 0 80 2 103 28 25 30 32 83 14 116
-12 23 -59 42 -178 71 -165 40 -234 110 -234 235 0 172 173 271 394 224z m690
0 c64 -14 104 -33 140 -67 l27 -25 -37 -53 c-20 -30 -41 -54 -45 -54 -5 0 -22
10 -39 21 -64 46 -161 60 -225 34 -45 -19 -53 -30 -53 -77 0 -50 30 -72 128
-92 181 -39 238 -70 278 -153 23 -47 26 -62 22 -123 -7 -94 -42 -151 -118
-194 -53 -30 -59 -31 -180 -31 -114 0 -130 2 -180 26 -59 28 -114 70 -130 99
-8 14 0 30 37 75 l46 56 41 -39 c64 -62 100 -76 189 -77 74 0 80 2 103 28 25
30 32 83 14 116 -12 23 -59 42 -178 71 -165 40 -234 110 -234 235 0 172 173
271 394 224z m1199 -14 c58 -20 124 -75 149 -125 l19 -38 -58 -36 c-67 -41
-77 -43 -85 -18 -12 38 -66 80 -118 92 -114 28 -218 -29 -249 -136 -17 -61
-17 -215 0 -268 18 -53 75 -113 119 -126 107 -29 201 4 242 85 14 28 26 52 28
54 1 3 32 -9 67 -27 61 -30 64 -33 55 -57 -32 -84 -76 -137 -144 -173 -47 -25
-60 -27 -171 -27 -141 0 -183 14 -263 89 -91 85 -135 240 -113 399 24 174 110
279 261 322 67 18 194 14 261 -10z m-7311 -9 c49 -26 69 -45 91 -88 38 -75 15
-181 -52 -228 l-31 -22 39 -18 c163 -75 163 -315 0 -403 -39 -21 -57 -22 -279
-25 l-238 -3 0 406 0 407 218 -4 c187 -3 222 -6 252 -22z m480 -311 l0 -335
183 -2 182 -3 3 -67 3 -68 -266 0 -265 0 0 405 0 405 80 0 80 0 0 -335z m650
35 c6 -332 6 -334 81 -364 83 -33 179 -13 223 47 20 27 21 45 26 320 l5 292
78 3 77 3 0 -294 c0 -326 -5 -363 -61 -430 -17 -21 -54 -50 -83 -64 -44 -23
-66 -28 -158 -31 -83 -3 -120 0 -163 13 -77 25 -138 81 -166 153 -21 53 -23
77 -27 339 -2 156 -2 290 2 298 5 13 20 15 83 13 l78 -3 5 -295z m1145 277
c87 -39 125 -99 125 -198 0 -80 -30 -134 -92 -168 -23 -13 -44 -25 -46 -26 -1
-1 15 -20 36 -41 33 -33 46 -61 87 -184 26 -80 50 -151 53 -157 3 -10 -17 -13
-80 -13 l-84 0 -47 145 c-58 175 -67 185 -168 185 l-69 0 0 -165 0 -165 -85 0
-85 0 0 398 c0 219 3 402 8 406 4 4 97 6 207 4 164 -3 207 -7 240 -21z m1525
-312 l0 -335 180 0 180 0 0 -70 0 -70 -265 0 -265 0 0 398 c0 219 3 402 7 405
3 4 42 7 85 7 l78 0 0 -335z m1021 -70 c76 -220 138 -401 139 -403 0 -1 -39
-1 -87 0 l-86 3 -30 88 -29 87 -153 0 -153 0 -29 -87 -30 -88 -81 -3 c-45 -2
-82 1 -82 5 0 4 62 187 137 406 l138 398 104 -3 103 -3 139 -400z m1799 0 l0
-405 -85 0 -85 0 0 398 c0 219 3 402 7 405 3 4 42 7 85 7 l78 0 0 -405z
m-6130 -972 l95 -153 5 153 5 152 48 3 47 3 0 -245 0 -246 -52 0 -53 1 -100
164 -100 164 -3 -164 -2 -165 -50 0 -50 0 0 245 0 246 57 -3 57 -3 96 -152z
m635 112 l0 -40 -107 -3 -108 -3 0 -59 0 -59 98 -3 97 -3 0 -40 0 -40 -97 -3
-98 -3 0 -94 0 -95 -50 0 -50 0 0 238 c0 131 3 242 7 246 4 3 75 5 157 4 l151
-3 0 -40z m405 0 l0 -45 -70 0 -70 0 0 -200 0 -200 -50 0 -50 0 0 200 0 199
-67 3 c-66 3 -68 4 -71 31 -7 57 -8 57 193 57 l185 0 0 -45z m425 -132 c33
-95 62 -173 65 -173 3 0 32 79 65 175 l59 175 63 0 63 0 0 -245 0 -245 -50 0
-50 0 -1 158 0 157 -20 -55 c-10 -30 -35 -101 -55 -157 l-36 -103 -43 0 -43 0
-53 157 -54 157 -3 -157 -3 -157 -44 0 -45 0 0 245 0 246 63 -3 62 -3 60 -172z
m725 25 c29 -84 68 -195 86 -245 l33 -93 -54 0 -54 0 -17 55 -18 55 -91 0 -91
0 -18 -55 -17 -55 -50 0 c-27 0 -49 3 -49 8 0 4 37 114 82 245 l82 237 62 0
62 0 52 -152z m436 141 c60 -15 94 -56 94 -114 0 -57 -17 -93 -52 -111 l-29
-15 24 -29 c14 -16 39 -70 55 -120 l31 -90 -53 0 -52 0 -24 76 c-33 104 -50
124 -106 124 l-44 0 0 -100 0 -100 -50 0 -50 0 0 238 c0 131 3 242 7 245 11
11 201 8 249 -4z m304 -91 l5 -98 80 100 80 99 46 1 c25 0 48 -3 52 -6 3 -3
-35 -56 -84 -116 l-90 -110 28 -37 c28 -37 135 -172 161 -203 14 -17 11 -18
-45 -18 l-61 0 -83 102 -84 103 -3 -103 -3 -102 -49 0 -50 0 0 246 0 245 48
-3 47 -3 5 -97z m670 57 l0 -45 -115 0 -115 0 0 -55 0 -55 100 0 100 0 0 -40
0 -40 -100 0 -100 0 0 -65 0 -65 120 0 120 0 0 -40 0 -40 -170 0 -170 0 0 238
c0 131 3 242 7 245 3 4 78 7 165 7 l158 0 0 -45z m420 0 l0 -45 -70 0 -70 0 0
-200 0 -200 -50 0 -50 0 0 200 0 200 -70 0 -70 0 0 45 0 45 190 0 190 0 0 -45z
m349 20 c54 -32 75 -68 75 -128 -1 -107 -59 -157 -184 -157 l-70 0 0 -90 0
-90 -50 0 -50 0 0 246 0 246 123 -3 c100 -3 128 -8 156 -24z m261 -180 l0
-205 110 0 110 0 0 -40 0 -40 -160 0 -160 0 0 238 c0 131 3 242 7 245 3 4 26
7 50 7 l43 0 0 -205z m617 -35 c45 -129 82 -239 82 -243 1 -4 -22 -7 -51 -5
l-51 3 -17 50 -17 50 -93 0 -93 0 -17 -50 -17 -50 -51 -3 -52 -3 80 233 c44
128 82 239 85 246 3 9 23 12 67 10 l63 -3 82 -235z m459 221 c40 -18 84 -63
84 -85 0 -6 -16 -20 -35 -30 l-34 -19 -29 31 c-55 58 -150 48 -192 -20 -24
-40 -28 -151 -6 -203 29 -67 135 -89 184 -37 15 15 32 36 38 47 10 18 11 18
46 -3 44 -27 42 -47 -11 -102 -99 -104 -293 -68 -352 65 -41 92 -29 229 26
301 54 71 188 97 281 55z m494 -26 l0 -45 -115 0 -115 0 0 -55 0 -55 100 0
100 0 0 -40 0 -40 -100 0 -100 0 0 -65 0 -65 120 0 120 0 0 -40 0 -40 -170 0
-170 0 0 238 c0 131 3 242 7 245 3 4 78 7 165 7 l158 0 0 -45z"/>
<path d="M238 3009 c-38 -22 -9 -85 32 -71 32 11 39 42 14 66 -18 19 -23 19
-46 5z"/>
<path d="M2582 3008 c-36 -36 6 -91 46 -62 26 18 28 37 6 58 -19 19 -36 20
-52 4z"/>
<path d="M1260 2651 c-345 -73 -605 -335 -681 -686 -17 -82 -15 -264 5 -349
119 -501 619 -793 1104 -645 283 87 500 311 583 602 30 106 36 280 15 387 -55
270 -224 494 -461 614 -181 90 -375 117 -565 77z m355 -86 c232 -61 412 -208
515 -420 59 -122 82 -218 82 -350 0 -129 -21 -213 -85 -345 -45 -93 -62 -116
-146 -200 -150 -150 -299 -216 -511 -227 -281 -15 -538 114 -690 345 -98 149
-137 300 -127 490 9 183 77 338 209 478 118 124 264 206 413 233 33 6 71 13
85 15 43 8 196 -4 255 -19z"/>
<path d="M1352 2489 c-136 -17 -247 -64 -353 -149 -111 -89 -185 -196 -231
-335 -33 -101 -33 -297 0 -405 74 -236 261 -413 502 -475 85 -22 291 -17 365
10 244 86 408 259 471 495 22 85 22 242 0 335 -34 141 -124 284 -239 376 -139
112 -342 170 -515 148z m233 -215 c82 -55 147 -106 151 -117 8 -26 -29 -59
-54 -50 -9 4 -69 41 -133 84 l-116 77 -104 -69 c-142 -96 -155 -102 -179 -89
-20 11 -26 45 -12 66 9 15 281 194 293 194 5 0 74 -43 154 -96z m-513 -271 c9
-10 34 -54 56 -98 l41 -80 1 82 c0 83 12 113 45 113 7 0 21 -7 29 -16 24 -23
24 -385 0 -408 -35 -35 -51 -21 -107 89 l-46 90 0 -73 c-1 -100 -25 -137 -72
-112 -18 10 -19 23 -19 208 0 203 3 222 40 222 9 0 24 -8 32 -17z m522 1 c20
-20 20 -38 0 -58 -11 -12 -36 -16 -90 -16 l-74 0 0 -40 c0 -40 0 -40 39 -40
60 0 91 -15 91 -44 0 -33 -18 -44 -75 -48 l-50 -3 -3 -75 c-2 -56 -7 -78 -19
-87 -23 -17 -30 -16 -53 7 -18 18 -20 33 -20 198 0 230 -5 222 135 222 81 0
107 -3 119 -16z m344 4 c15 -15 15 -51 0 -66 -7 -7 -25 -12 -40 -12 l-28 0 0
-157 c0 -132 -3 -159 -17 -175 -20 -22 -37 -23 -57 -2 -13 13 -16 43 -16 175
l0 159 -29 0 c-31 0 -61 22 -61 45 0 35 29 45 134 45 66 0 106 -4 114 -12z
m-1030 -202 c5 -23 -16 -46 -42 -46 -46 0 -62 48 -24 74 19 13 25 14 43 2 11
-7 21 -21 23 -30z m1128 8 c8 -30 -11 -54 -42 -54 -30 0 -49 33 -34 59 19 37
66 34 76 -5z m-730 -398 l127 -84 120 80 c67 45 128 83 137 85 23 6 53 -31 46
-55 -9 -27 -290 -212 -313 -205 -10 2 -79 46 -153 96 -103 70 -136 98 -138
116 -4 23 19 51 39 51 4 0 65 -38 135 -84z"/>
<path d="M2406 2614 c-9 -8 -16 -22 -16 -29 0 -17 27 -45 44 -45 36 0 49 62
17 80 -25 13 -27 13 -45 -6z"/>
<path d="M396 2602 c-13 -41 19 -71 55 -51 14 7 19 19 17 37 -2 22 -9 28 -35
30 -24 2 -33 -1 -37 -16z"/>
<path d="M232 2178 c-7 -7 -12 -22 -12 -35 0 -27 42 -42 65 -23 28 23 11 70
-25 70 -9 0 -21 -5 -28 -12z"/>
<path d="M2570 2171 c-16 -31 4 -63 37 -59 34 4 52 32 37 56 -16 26 -60 28
-74 3z"/>
<path d="M2580 1480 c-11 -11 -20 -24 -20 -29 0 -16 30 -41 49 -41 38 0 54 45
25 74 -20 21 -30 20 -54 -4z"/>
<path d="M227 1483 c-12 -12 -7 -50 8 -63 32 -27 82 23 55 55 -13 15 -51 20
-63 8z"/>
<path d="M402 1048 c-29 -29 -2 -72 40 -66 42 6 32 78 -11 78 -9 0 -22 -5 -29
-12z"/>
<path d="M2400 1045 c-15 -19 -6 -61 16 -69 18 -7 64 18 64 35 0 42 -54 65
-80 34z"/>
<path d="M230 656 c-19 -23 -8 -61 18 -64 44 -7 67 32 36 62 -19 20 -38 20
-54 2z"/>
<path d="M2576 654 c-21 -21 -20 -37 3 -58 25 -23 59 -13 67 20 12 46 -37 72
-70 38z"/>
<path d="M3190 2235 l0 -95 100 0 c94 0 103 2 125 25 19 18 25 35 25 70 0 35
-6 52 -25 70 -22 23 -31 25 -125 25 l-100 0 0 -95z"/>
<path d="M3190 1896 l0 -116 110 0 c158 0 190 20 190 119 0 38 -6 56 -24 78
-24 28 -26 28 -150 31 l-126 4 0 -116z"/>
<path d="M5480 2220 l0 -110 73 0 c134 0 177 26 177 108 0 86 -40 112 -170
112 l-80 0 0 -110z"/>
<path d="M8057 2273 c-6 -10 -97 -289 -97 -297 0 -3 47 -6 105 -6 58 0 105 3
105 6 0 13 -93 290 -100 297 -4 5 -10 5 -13 0z"/>
<path d="M6025 1049 c-15 -46 -30 -90 -33 -96 -3 -10 13 -13 61 -13 l65 0 -25
83 c-37 120 -37 120 -68 26z"/>
<path d="M6450 1095 l0 -65 58 0 c71 0 95 15 95 60 0 48 -31 70 -99 70 l-54 0
0 -65z"/>
<path d="M8170 1086 l0 -76 58 0 c71 0 92 17 92 77 0 52 -17 66 -91 71 l-59 4
0 -76z"/>
<path d="M9051 1052 c-13 -42 -26 -85 -28 -94 -5 -16 2 -18 56 -18 33 0 61 3
61 7 0 13 -52 168 -59 175 -3 4 -17 -28 -30 -70z"/>
</g>
</svg>
